<svg xmlns="http://www.w3.org/2000/svg" viewBox="0 0 28 28"><defs><style>.cls-1,.cls-2{fill:#fff;}.cls-1{opacity:0;}</style></defs><title>check list</title><g id="Layer_2" data-name="Layer 2"><rect class="cls-1" y="-0.13" width="28" height="28"/></g><g id="Layer_1" data-name="Layer 1"><path class="cls-2" d="M2.38,27.84H25.62V.16H2.38ZM3.88,1.66H24.12V26.34H3.88Z"/><rect class="cls-2" x="14.72" y="13.06" width="7.02" height="1.5"/><polygon class="cls-2" points="8.75 14.68 6.79 12.72 5.73 13.78 8.74 16.8 12.78 12.79 11.72 11.73 8.75 14.68"/><rect class="cls-2" x="14.72" y="20.49" width="7.02" height="1.5"/><polygon class="cls-2" points="8.75 22.12 6.79 20.16 5.73 21.22 8.74 24.23 12.78 20.23 11.72 19.16 8.75 22.12"/><rect class="cls-2" x="14.72" y="5.62" width="7.02" height="1.5"/><polygon class="cls-2" points="8.75 7.24 6.79 5.28 5.73 6.34 8.74 9.36 12.78 5.36 11.72 4.29 8.75 7.24"/></g></svg>