<?xml version="1.0" encoding="utf-8"?>
<!-- Generator: Adobe Illustrator 23.1.1, SVG Export Plug-In . SVG Version: 6.00 Build 0)  -->
<svg version="1.1" id="Layer_1" xmlns="http://www.w3.org/2000/svg" xmlns:xlink="http://www.w3.org/1999/xlink" x="0px" y="0px"
	 viewBox="0 0 552.5 112" style="enable-background:new 0 0 552.5 112;" xml:space="preserve">
<style type="text/css">
	.st0{fill:#FF671D;}
	.st1{fill:#00A6CE;}
	.st2{fill:#FFFFFF;}
</style>
<title>color-white horizontal</title>
<g id="the_logo">
	<path class="st0" d="M106.3,42.5L69.5,5.7c-7.5-7.5-19.7-7.5-27.2,0L5.6,42.5c-7.5,7.5-7.5,19.7,0,27.2l36.8,36.8
		c7.5,7.5,19.7,7.5,27.2,0l7.7-7.7L37.1,58.6c-0.7-0.7-1-1.6-1-2.5c0-0.9,0.3-1.8,1-2.5l33.1-33l29,29c3.6,3.6,3.6,9.4,0,13
		c0,0,0,0,0,0L84.3,77.4l7.1,7.1l14.9-14.9C113.8,62.2,113.8,50,106.3,42.5z M30,46.5c-5.3,5.3-5.3,13.9,0,19.1l33.1,33l-0.6,0.6
		c-3.6,3.6-9.4,3.6-13,0c0,0,0,0,0,0L12.7,62.6c-3.6-3.6-3.6-9.4,0-13c0,0,0,0,0,0l36.8-36.7c3.6-3.6,9.4-3.6,13,0c0,0,0,0,0,0
		l0.6,0.6L30,46.5z"/>
	<path class="st1" d="M163.1,42.5L126.4,5.8c-7.5-7.5-19.7-7.5-27.2,0l-7.8,7.8l40.1,40.1c0.6,0.7,1,1.6,1,2.5c0,0.9-0.4,1.8-1,2.5
		l-33,33l-29-29c-3.6-3.6-3.6-9.4,0-13c0,0,0,0,0,0l14.9-14.8l-7.1-7.1L62.5,42.5C55,50,55,62.2,62.5,69.7l36.7,36.8
		c7.5,7.5,19.7,7.5,27.2,0l36.8-36.8C170.6,62.2,170.6,50,163.1,42.5z M156,62.6l-36.7,36.8c-3.6,3.6-9.4,3.6-13,0c0,0,0,0,0,0
		l-0.7-0.7l33-33c5.3-5.3,5.3-13.9,0-19.1l-33-33l0.7-0.7c3.6-3.6,9.4-3.6,13,0c0,0,0,0,0,0L156,49.6C159.6,53.2,159.6,59,156,62.6
		C156,62.6,156,62.6,156,62.6L156,62.6z"/>
	<path class="st2" d="M191.2,5.3h9.4V56h-9.4V5.3z"/>
	<path class="st2" d="M270.5,5.3V56h-7.8l-28.1-34.3V56h-9.4V5.3h7.8l28.1,34.3V5.3H270.5z"/>
	<path class="st2" d="M304.6,13.2v15.4h24.6v8h-24.6V56h-9.5V5.3h37.2v7.9H304.6z"/>
	<path class="st2" d="M352.3,5.3h9.5V56h-9.5V5.3z"/>
	<path class="st2" d="M431.7,5.3V56h-7.8l-28.1-34.3V56h-9.4V5.3h7.8l28.1,34.3V5.3H431.7z"/>
	<path class="st2" d="M494.4,48.1V56h-38.2V5.3h37.2v7.9h-27.7v13.2h24.6v7.7h-24.6v14L494.4,48.1z"/>
	<path class="st2" d="M526.2,13.3h-16.9v-8h43.2v8h-16.9V56h-9.5V13.3z"/>
	<path class="st2" d="M212.6,81.7l3.9,9.3l2.1,4.7l1.3,4.7h0.3l1.1-4.9l4.6-13.9h4.1l-8.9,25.1h-2.3l-6.9-15.9l0,0l-1.2-4.6
		l-1.4,4.7l0,0l-6.6,15.8h-2.2l-9.3-25.1h4.7l5.2,13.9l0.9,4.9h0.4l1.3-5l5.7-13.8L212.6,81.7z"/>
	<path class="st2" d="M243.9,75.8c0-0.7,0.3-1.4,0.8-1.9c0.6-0.6,1.4-0.9,2.2-0.9c0.8,0,1.6,0.3,2.2,0.9c0.6,0.5,0.9,1.2,0.9,1.9
		c0,0.7-0.3,1.4-0.9,1.9c-0.6,0.6-1.4,0.9-2.2,0.8c-0.8,0-1.6-0.3-2.2-0.8C244.2,77.2,243.9,76.5,243.9,75.8z M244.8,81.7h4.3v24.6
		h-4.3V81.7z"/>
	<path class="st2" d="M280.6,85.7c-0.5-0.1-1-0.2-1.5-0.4c-0.5-0.1-0.9-0.2-1.4-0.2c-1.4-0.1-2.8,0.4-3.9,1.3
		c-0.9,0.8-1.5,1.9-1.7,3.2v16.6h-4.3V81.7h3l0.8,3.3h0.4c0.6-1.1,1.5-2.1,2.5-2.8c1.1-0.7,2.3-1,3.6-1c0.5,0,1,0,1.5,0.1
		c0.6,0.1,1.2,0.2,1.8,0.4L280.6,85.7z"/>
	<path class="st2" d="M314.9,104.2c-1.2,0.9-2.6,1.5-4.1,1.9c-1.7,0.5-3.5,0.7-5.3,0.7c-1.8,0-3.7-0.3-5.4-0.9
		c-1.4-0.6-2.7-1.4-3.7-2.6c-1-1.2-1.7-2.6-2.1-4.1c-0.5-1.7-0.7-3.5-0.7-5.3c0-4.2,1-7.4,3.1-9.7c2.1-2.2,5-3.3,8.9-3.3
		c1.2,0,2.5,0.1,3.7,0.4c1.2,0.2,2.3,0.8,3.3,1.5c1,0.8,1.8,1.8,2.4,3c0.7,1.6,1,3.3,0.9,5c0,0.5,0,1.1,0,1.7s-0.1,1.3-0.2,1.9H298
		c0.1,2.9,0.7,5,2.1,6.5c1.3,1.5,3.5,2.2,6.7,2.2c1.3,0,2.6-0.2,3.8-0.7c1-0.3,2-0.9,2.8-1.6L314.9,104.2z M311.7,91.5
		c0.1-2.5-0.4-4.3-1.5-5.3c-1.2-1.1-2.9-1.6-4.5-1.6c-1.9-0.1-3.7,0.4-5.2,1.6c-1.3,1-2,2.8-2.2,5.3H311.7z"/>
	<path class="st2" d="M337.1,99.7c-0.1,1,0.2,1.9,0.7,2.7c0.5,0.5,1.2,0.8,2,0.8c0.5,0,1,0,1.5-0.1c0.6-0.1,1.1-0.2,1.7-0.4l0.6,3.2
		c-0.4,0.1-0.7,0.3-1.1,0.3c-0.4,0.1-0.9,0.2-1.4,0.3c-0.5,0.1-0.9,0.2-1.4,0.2c-0.4,0-0.8,0.1-1.3,0.1c-1.4,0.1-2.9-0.4-4-1.3
		c-1-0.9-1.5-2.3-1.5-4.3V73.5h4.3L337.1,99.7z"/>
	<path class="st2" d="M377.4,104.2c-1.2,0.9-2.6,1.5-4.1,1.9c-1.7,0.5-3.5,0.7-5.3,0.7c-1.8,0-3.6-0.3-5.4-0.9
		c-1.4-0.5-2.7-1.4-3.7-2.6c-1-1.2-1.7-2.6-2.1-4.1c-0.5-1.7-0.7-3.5-0.7-5.3c0-4.2,1-7.4,3.1-9.7c2.1-2.2,5-3.3,8.9-3.3
		c1.2,0,2.5,0.1,3.6,0.4c2.5,0.5,4.6,2.2,5.6,4.5c0.7,1.6,1,3.3,0.9,5c0,0.5,0,1.1,0,1.7s-0.1,1.3-0.2,1.9h-17.6
		c0.1,2.9,0.7,5,2.1,6.5c1.3,1.5,3.5,2.2,6.7,2.2c1.3,0,2.5-0.2,3.7-0.7c1-0.4,2-0.9,2.8-1.6L377.4,104.2z M374.1,91.5
		c0.1-2.5-0.4-4.3-1.5-5.3c-1.2-1.1-2.9-1.6-4.5-1.6c-1.9-0.1-3.7,0.4-5.2,1.6c-1.3,1-2,2.8-2.2,5.3H374.1z"/>
	<path class="st2" d="M407.2,99.4c0-0.6-0.1-1.1-0.5-1.6c-0.3-0.4-0.7-0.8-1.2-1.1c-0.5-0.3-1.1-0.6-1.7-0.8l-2.1-0.7
		c-0.9-0.2-1.8-0.5-2.7-0.8c-0.9-0.3-1.7-0.7-2.5-1.2c-1.7-1.1-2.6-3.1-2.5-5.1c-0.2-2.1,0.6-4.1,2.2-5.4c1.8-1.3,3.9-1.9,6.1-1.8
		c1.7,0,3.4,0.2,5,0.6c1.2,0.3,2.4,0.7,3.5,1.2l-1,3.7c-1-0.5-2-0.9-3-1.2c-1.2-0.4-2.5-0.6-3.9-0.6c-1.2-0.1-2.4,0.2-3.4,0.8
		c-0.8,0.6-1.2,1.7-1.1,2.7c0,0.5,0.1,0.9,0.4,1.3c0.3,0.4,0.7,0.7,1.1,0.9c0.5,0.3,1.1,0.5,1.6,0.7c0.6,0.2,1.3,0.4,2,0.6
		c0.9,0.2,1.9,0.5,2.8,0.9c0.9,0.3,1.8,0.8,2.6,1.3c0.8,0.5,1.4,1.3,1.9,2.1c0.5,1,0.8,2.1,0.7,3.2c0.1,2.1-0.8,4.2-2.3,5.7
		c-1.6,1.4-3.9,2.2-7,2.2c-1.8,0-3.5-0.2-5.2-0.6c-1.3-0.3-2.5-0.8-3.7-1.4l1.2-3.8c1.1,0.6,2.2,1,3.4,1.4c1.3,0.5,2.7,0.7,4.2,0.7
		c1.3,0.1,2.6-0.2,3.8-0.8C406.8,101.8,407.3,100.6,407.2,99.4z"/>
	<path class="st2" d="M439.9,99.4c0-0.6-0.1-1.1-0.4-1.6c-0.3-0.4-0.7-0.8-1.2-1.1c-0.5-0.3-1.1-0.6-1.7-0.8
		c-0.6-0.2-1.3-0.4-2.1-0.7c-0.9-0.2-1.8-0.5-2.7-0.8c-0.9-0.3-1.7-0.7-2.5-1.2c-1.7-1.1-2.6-3.1-2.5-5.1c-0.2-2.1,0.6-4.1,2.2-5.4
		c1.8-1.3,3.9-1.9,6.1-1.8c1.7,0,3.4,0.2,5,0.6c1.2,0.3,2.4,0.7,3.5,1.2l-1,3.7c-1-0.5-2-0.9-3-1.2c-1.2-0.4-2.6-0.6-3.9-0.6
		c-1.2-0.1-2.4,0.2-3.4,0.8c-0.9,0.6-1.3,1.6-1.2,2.7c0,0.5,0.1,0.9,0.4,1.3c0.3,0.4,0.7,0.7,1.1,0.9c0.5,0.3,1.1,0.5,1.6,0.7
		c0.6,0.2,1.3,0.4,2,0.6c0.9,0.2,1.9,0.5,2.8,0.9c0.9,0.3,1.8,0.8,2.6,1.3c0.8,0.5,1.4,1.3,1.9,2.1c0.5,1,0.8,2.1,0.7,3.2
		c0.1,2.1-0.8,4.2-2.3,5.7c-1.6,1.4-3.9,2.2-7,2.2c-1.8,0-3.5-0.2-5.2-0.6c-1.3-0.3-2.5-0.8-3.7-1.4l1.2-3.8c1.1,0.6,2.2,1,3.4,1.4
		c1.3,0.5,2.8,0.7,4.2,0.7c1.3,0.1,2.6-0.2,3.8-0.8C439.5,101.8,440,100.6,439.9,99.4z"/>
</g>
</svg>
