<svg xmlns="http://www.w3.org/2000/svg" viewBox="0 0 28 28"><defs><style>.cls-1,.cls-2{fill:#fff;}.cls-1{opacity:0;}</style></defs><title>gears, settings</title><g id="Layer_2" data-name="Layer 2"><rect class="cls-1" x="0.03" y="-0.2" width="28" height="28"/></g><g id="Layer_1" data-name="Layer 1"><path class="cls-2" d="M2.37,11a6.41,6.41,0,0,0,.47,1.4L1.06,14.05l3,3.29L5.85,15.7a7.17,7.17,0,0,0,2.81.89l.52,2.35,4.36-1L13,15.62a7.12,7.12,0,0,0,2.17-2l2.3.73,1.34-4.26-2.3-.72a6.56,6.56,0,0,0-.17-1.47,6.49,6.49,0,0,0-.47-1.41l1.78-1.63-3-3.28L12.87,3.22a7,7,0,0,0-2.81-.88L9.54,0,5.18,1,5.71,3.3a7.12,7.12,0,0,0-2.17,2l-2.3-.72L-.1,8.82l2.3.73A6.7,6.7,0,0,0,2.37,11ZM2.22,6.45l2,.62.3-.51A5.62,5.62,0,0,1,6.89,4.37l.53-.26L7,2.09,8.4,1.77l.45,2h.59a5.58,5.58,0,0,1,3.09,1l.49.33,1.53-1.4,1,1.07L14,6.18l.29.52a5.7,5.7,0,0,1,.59,1.53A5.63,5.63,0,0,1,15,9.87l0,.59,2,.62-.44,1.39-2-.62-.3.51a5.68,5.68,0,0,1-2.39,2.19l-.53.26.45,2-1.43.31-.45-2H9.28a5.67,5.67,0,0,1-3.09-1l-.49-.34L4.17,15.22l-1-1.08,1.52-1.4-.28-.52a5.7,5.7,0,0,1-.59-1.53,5.6,5.6,0,0,1-.12-1.64l0-.59-2-.62Z"/><path class="cls-2" d="M9.36,13.29A3.83,3.83,0,1,0,5.53,9.46,3.84,3.84,0,0,0,9.36,13.29Zm0-6.16A2.33,2.33,0,1,1,7,9.46,2.33,2.33,0,0,1,9.36,7.13Z"/><path class="cls-2" d="M25.39,22.21a5.74,5.74,0,0,0,.19-1l1.83-.44-.89-3.65-1.83.45a5.56,5.56,0,0,0-1.42-1.48l.52-1.81-3.59-1L19.67,15a5.71,5.71,0,0,0-2,.49l-1.31-1.36-2.71,2.59L15,18.1a4.92,4.92,0,0,0-.38,1,5.75,5.75,0,0,0-.2,1l-1.83.44.9,3.65,1.83-.45a5.71,5.71,0,0,0,1.42,1.48L16.18,27l3.6,1,.53-1.81a5.76,5.76,0,0,0,2-.49l1.3,1.36,2.71-2.59L25,23.17a6.61,6.61,0,0,0,.38-1ZM24.11,20.6a4,4,0,0,1-.66,2.27l-.32.5,1.06,1.11-.54.52-1.07-1.11-.51.3a4.11,4.11,0,0,1-2.29.56l-.59,0-.43,1.48L18,26l.43-1.48L18,24.22a4.13,4.13,0,0,1-1.63-1.71L16.05,22l-1.49.36-.18-.73,1.49-.36v-.59A4.28,4.28,0,0,1,16,19.48a4.38,4.38,0,0,1,.49-1.08l.33-.5-1.07-1.11.55-.52,1.06,1.11.51-.3a4.11,4.11,0,0,1,2.29-.56l.6,0,.43-1.48.72.21-.43,1.48.51.29a4.13,4.13,0,0,1,1.63,1.71l.27.53,1.5-.37.18.73L24.1,20Z"/><path class="cls-2" d="M20.26,17.55a3.11,3.11,0,0,0-3.35,2.82,3.08,3.08,0,0,0,2.81,3.34l.27,0a3.12,3.12,0,0,0,3.08-2.83A3.11,3.11,0,0,0,20.26,17.55Zm.75,4.3a1.55,1.55,0,0,1-1.16.37,1.59,1.59,0,0,1-1.08-.56,1.55,1.55,0,0,1-.37-1.16A1.6,1.6,0,0,1,20,19h.13a1.59,1.59,0,0,1,1.45,1.72A1.51,1.51,0,0,1,21,21.85Z"/></g></svg>