<svg xmlns="http://www.w3.org/2000/svg" viewBox="0 0 28 28"><defs><style>.cls-1,.cls-2{fill:#fff;}.cls-1{opacity:0;}</style></defs><title>target</title><g id="Layer_2" data-name="Layer 2"><rect class="cls-1" y="-0.13" width="28" height="28"/></g><g id="Layer_1" data-name="Layer 1"><path class="cls-2" d="M23.16,4.77l-1-4.11L20.35,2.49a13.34,13.34,0,1,0-6.54,25,13.49,13.49,0,0,0,12-7.57A13.83,13.83,0,0,0,27.1,14.8v-.69a13.42,13.42,0,0,0-1.7-6.54l1.8-1.81ZM22,8.84l-1.53-.37,2.29-2.25,1.49.36Zm-.67,5.27A7.59,7.59,0,1,1,18,7.8l.21.84-.66.65h0l-1,1a4.77,4.77,0,1,0,1.06,1.06l1.63-1.63.83.2A7.56,7.56,0,0,1,21.34,14.11Zm-4.34,0a3.27,3.27,0,1,1-1.55-2.75l-2.22,2.22,1.06,1.06,2.22-2.22A3.27,3.27,0,0,1,17,14.11Zm4.71-9-2.3,2.27L19,5.92l2.3-2.3Zm3.89,9v.64A11.79,11.79,0,0,1,13.81,26,11.85,11.85,0,1,1,19.23,3.61L17.38,5.46l.09.38a9.07,9.07,0,1,0,5.37,8.27A9.17,9.17,0,0,0,22,10.38l.45.11,1.82-1.82A11.92,11.92,0,0,1,25.6,14.11Z"/></g></svg>