<svg xmlns="http://www.w3.org/2000/svg" viewBox="0 0 28 28"><defs><style>.cls-1,.cls-2{fill:#fff;}.cls-1{opacity:0;}</style></defs><title>team</title><g id="Layer_2" data-name="Layer 2"><rect class="cls-1" width="28" height="28"/></g><g id="Layer_1" data-name="Layer 1"><path class="cls-2" d="M23.89,11.53a5.29,5.29,0,0,0-3-9.66A5.32,5.32,0,0,0,16,5.19a5.32,5.32,0,0,0-4,0,5.29,5.29,0,0,0-10.2,2,5.26,5.26,0,0,0,2.31,4.36A6.94,6.94,0,0,0-.08,17.9v2.2H5.71a8.58,8.58,0,0,0-.35,2.39v3.64H22.64V22.49a8.58,8.58,0,0,0-.35-2.39h5.79V17.9A6.94,6.94,0,0,0,23.89,11.53Zm-3-8.16a3.8,3.8,0,0,1,0,7.59,3.72,3.72,0,0,1-1.64-.38,4.43,4.43,0,0,0,0-.52,4.44,4.44,0,0,0,0-.63,1.52,1.52,0,0,0,0-.21c0-.13,0-.27-.08-.41a1.55,1.55,0,0,0-.07-.23A3.07,3.07,0,0,0,19,8.22c0-.09-.07-.16-.1-.24s-.1-.22-.16-.33a1.71,1.71,0,0,0-.13-.23,3.21,3.21,0,0,0-.19-.31l-.15-.21A3.25,3.25,0,0,0,18,6.61l-.18-.19a3.57,3.57,0,0,0-.28-.27L17.36,6l0,0A3.8,3.8,0,0,1,20.91,3.37ZM16.05,6.88a3.79,3.79,0,0,1,1.74,3.18,3.94,3.94,0,0,1-.07.77,4.68,4.68,0,0,1-.21.67,3.79,3.79,0,0,1-3.46,2.36H14a3.79,3.79,0,0,1-3.49-2.36,4.68,4.68,0,0,1-.21-.67,3.94,3.94,0,0,1-.08-.77,3.77,3.77,0,0,1,.27-1.38A3.82,3.82,0,0,1,12,6.88h0a3.75,3.75,0,0,1,4.1,0ZM3.3,7.17A3.79,3.79,0,0,1,10.68,6s0,0,0,0l-.18.16a3.57,3.57,0,0,0-.28.27L10,6.61a3.25,3.25,0,0,0-.23.29l-.15.21-.2.31-.12.23c-.06.11-.11.22-.16.33s-.07.15-.1.24a3.07,3.07,0,0,0-.11.36,1.55,1.55,0,0,0-.07.23c0,.14-.06.27-.08.41s0,.14,0,.21,0,.42,0,.63a4.41,4.41,0,0,0,0,.52A3.72,3.72,0,0,1,7.09,11,3.79,3.79,0,0,1,3.3,7.17ZM1.42,18.6v-.7a5.45,5.45,0,0,1,5.44-5.44v0l.23,0a5.35,5.35,0,0,0,2-.41v0A5.26,5.26,0,0,0,11,14.41,8.69,8.69,0,0,0,6.3,18.6Zm19.72,6H6.86V22.49a7.14,7.14,0,0,1,14.28,0Zm5.44-6H21.7A8.69,8.69,0,0,0,17,14.41a5.24,5.24,0,0,0,1.88-2.34s0,0,0,0a5.35,5.35,0,0,0,2,.41l.23,0v0a5.45,5.45,0,0,1,5.44,5.44Z"/></g></svg>