<svg xmlns="http://www.w3.org/2000/svg" viewBox="0 0 28 28"><defs><style>.cls-1{fill:none;opacity:0;}.cls-2{fill:#fff;}</style></defs><title>upload</title><g id="Layer_2" data-name="Layer 2"><rect class="cls-1" y="-0.13" width="28" height="28"/></g><g id="Layer_1" data-name="Layer 1"><path class="cls-2" d="M27.32,15.37a5.36,5.36,0,0,0-2.65-4.61A4.34,4.34,0,0,0,20,6.44a7,7,0,0,0-13,1.3,6.5,6.5,0,0,0,.24,13h6.07v6.43h1.5V20.73H22A5.36,5.36,0,0,0,27.32,15.37ZM22,19.23H14.75V15.17L16.54,17V14.8L14,12.26,11.46,14.8V17l1.79-1.79v4.06H7.18a5,5,0,0,1,0-10l.11,0,.21,0,.69.05.1-.69a5.47,5.47,0,0,1,10.54-1.1l.23.62L19.7,8a2.81,2.81,0,0,1,.62-.07,2.85,2.85,0,0,1,2.85,2.84,1.52,1.52,0,0,1,0,.21l-.08.67.5.22A3.85,3.85,0,0,1,22,19.23Z"/></g></svg>